<svg width="30" height="30" viewBox="0 0 30 30" fill="none" xmlns="http://www.w3.org/2000/svg">
<g id="012-medicine">
<g id="Group">
<g id="Group_2">
<path id="Vector" d="M21.9679 0H8.06635C7.49758 0 7.03662 0.460957 7.03662 1.02973V6.07547C7.03662 6.64424 7.49758 7.1052 8.06635 7.1052H21.9679C22.5367 7.1052 22.9977 6.64424 22.9977 6.07547V1.02973C22.9977 0.460957 22.5367 0 21.9679 0ZM20.9382 5.04574H9.09607V2.05951H20.9382V5.04574H20.9382Z" fill="#10217D"/>
</g>
</g>
<g id="Group_3">
<g id="Group_4">
<path id="Vector_2" d="M20.492 6.10999H18.4325V10.8468H20.492V6.10999Z" fill="#10217D"/>
</g>
</g>
<g id="Group_5">
<g id="Group_6">
<path id="Vector_3" d="M11.5676 6.10999H9.50806V10.8468H11.5676V6.10999Z" fill="#10217D"/>
</g>
</g>
<g id="Group_7">
<g id="Group_8">
<path id="Vector_4" d="M22.4828 9.81689H7.51717C6.57083 9.81689 5.8009 10.5868 5.8009 11.5332V28.2837C5.8009 29.2301 6.57083 30 7.51717 30H22.4828C23.4292 30 24.1991 29.2301 24.1991 28.2837V11.5332C24.1991 10.5868 23.4292 9.81689 22.4828 9.81689ZM22.1396 27.9405H7.86042V11.8764H22.1396V27.9405Z" fill="#10217D"/>
</g>
</g>
<g id="Group_9">
<g id="Group_10">
<path id="Vector_5" d="M14.9999 15.2059C14.4312 15.2059 13.9702 15.6669 13.9702 16.2357V23.5812C13.9702 24.15 14.4312 24.6109 14.9999 24.6109C15.5687 24.6109 16.0297 24.15 16.0297 23.5812V16.2357C16.0297 15.6669 15.5687 15.2059 14.9999 15.2059Z" fill="#10217D"/>
</g>
</g>
<g id="Group_11">
<g id="Group_12">
<path id="Vector_6" d="M18.6728 18.8788H11.3272C10.7584 18.8788 10.2975 19.3397 10.2975 19.9085C10.2975 20.4773 10.7584 20.9382 11.3272 20.9382H18.6728C19.2419 20.9382 19.7025 20.4773 19.7025 19.9085C19.7025 19.3397 19.2415 18.8788 18.6728 18.8788Z" fill="#10217D"/>
</g>
</g>
</g>
</svg>
